<svg xmlns="http://www.w3.org/2000/svg" width="16" height="16"><g transform="translate(0.696 0.696)"><g transform="translate(0 -0)"><g transform="translate(0 0)"><path d="M 14.545 14.01 C 14.637 14.137 14.642 14.307 14.56 14.44 C 14.477 14.573 14.322 14.643 14.166 14.619 L 0.453 14.619 C 0.297 14.644 0.141 14.573 0.058 14.44 C -0.025 14.307 -0.019 14.137 0.073 14.01 L 7.003 0.251 C 7.172 -0.084 7.447 -0.084 7.616 0.251 Z" fill="transparent" stroke="#e60000" stroke-linecap="round" stroke-linejoin="round"></path><path d="M 7.309 10.198 L 7.309 5.433" fill="transparent" stroke="#e60000" stroke-linecap="round" stroke-linejoin="round"></path><path d="M 7.303 11.559 C 7.258 11.561 7.215 11.579 7.184 11.612 C 7.154 11.645 7.137 11.688 7.139 11.733 C 7.142 11.826 7.219 11.899 7.312 11.9 L 7.316 11.9 C 7.361 11.899 7.404 11.88 7.435 11.847 C 7.466 11.815 7.483 11.771 7.481 11.726 C 7.477 11.634 7.402 11.561 7.309 11.559 L 7.306 11.559" fill="transparent" stroke="#e60000" stroke-linecap="round" stroke-linejoin="round"></path></g></g></g></svg>