<svg id="Layer_1" data-name="Layer 1" xmlns="http://www.w3.org/2000/svg" viewBox="0 0 341 155"><polygon points="141.987 47.293 159.934 65.241 168.253 65.241 168.253 56.872 150.331 38.95 141.987 47.293" style="fill:#fff"/><polygon points="171.779 68.767 171.779 77.09 189.741 95.085 198.085 86.737 180.148 68.767 171.779 68.767" style="fill:#fff"/><polygon points="141.987 86.737 150.331 95.085 168.253 77.136 168.253 68.767 159.93 68.767 141.987 86.737" style="fill:#fff"/><polygon points="198.085 47.3 189.741 38.956 171.779 56.917 171.779 65.241 180.144 65.241 198.085 47.3" style="fill:#fff"/><polygon points="257.027 41.612 257.027 92.38 269.094 92.38 269.094 67.828 269.094 52.202 269.094 41.612 257.027 41.612" style="fill:#fff"/><path d="M269.0944,52.2018H287.098v-10.59h-6.9613C273.8319,41.6116,269.0944,45.897,269.0944,52.2018Z" style="fill:#fff"/><path d="M75.0266,25.2052H63.0627V80.9647A11.4156,11.4156,0,0,0,74.4784,92.38H84.995V82.4127H75.0266Z" style="fill:#fff"/><path d="M32.2589,40.3685c-12.1063,0-18.7649,8.6755-18.7649,14.4145V41.6087H.75V110.59H13.494V79.9312c0,7.1929,7.6868,13.76,17.7115,13.76,14.12,0,23.96-11.9368,23.96-26.6614S46.3789,40.3685,32.2589,40.3685ZM27.5348,83.1454c-11.3841,0-15.19-6.8137-15.19-16.1153s3.8059-16.1154,15.19-16.1154,15.19,6.8137,15.19,16.1154S38.9189,83.1454,27.5348,83.1454Z" style="fill:#fff"/><path d="M113.6151,40.3686c-15.5926,0-25.8418,11.9215-25.8418,26.6275s10.3184,26.6272,26.4643,26.6272c10.1971,0,17.2046-3.8239,21.68-8.1651l-7.5887-7.5889a19.2207,19.2207,0,0,1-13.676,5.4215,14.307,14.307,0,0,1-14.3932-11.5289h38.3573a29.9165,29.9165,0,0,0,.4046-5.16C139.0213,51.8959,129.2074,40.3686,113.6151,40.3686Zm-13.666,22.65c.7643-7.122,5.8417-12.7531,13.666-12.7531S126.401,55.85,126.7207,63.0186Z" style="fill:#fff"/><path d="M340.25,66.6018c0-14.7059-9.8138-26.2332-25.4061-26.2332S289.0019,52.29,289.0019,66.9961,299.32,93.6233,315.4662,93.6233c10.1971,0,17.2046-3.8239,21.68-8.1651l-7.5886-7.5889a19.2209,19.2209,0,0,1-13.6761,5.4215A14.307,14.307,0,0,1,301.488,71.7619h38.3574A29.917,29.917,0,0,0,340.25,66.6018Zm-39.0722-3.5832c.7643-7.122,5.8417-12.7531,13.6661-12.7531S327.63,55.85,327.9493,63.0186Z" style="fill:#fff"/><path d="M234.7635,81.9977H216.7572V41.6116H204.6888V75.2811c0,11.6661,9.4572,18.4261,21.1233,18.4261h0c11.666,0,21.1233-6.76,21.1233-18.4261V41.6116h-12.172Z" style="fill:#fff"/><path d="M170.8873,8.6313c0,1.3682,1.292,2.3565,3.1914,2.7745l3.7608.76c4.4453.9112,10.0693,2.2793,10.0693,8.0547s-5.8135,9.043-11.55,9.043c-7.0679,0-11.7031-3.5342-12.6909-9.461h6.459c.7221,2.8877,3.0014,4.2168,6.3833,4.2168,2.2041,0,4.7119-.7216,4.7119-3.0009,0-1.7862-2.1289-2.66-5.13-3.3057l-3.3437-.6836c-4.483-.95-8.5484-3.0781-8.5484-8.0166,0-5.624,6.041-8.2451,11.436-8.2451s10.5245,2.3555,11.4747,8.4346h-6.4219c-.6455-2.0518-2.6592-3.23-5.4326-3.23C172.7487,5.9722,170.8873,6.9224,170.8873,8.6313Z" style="fill:#a8dfcb"/><path d="M187.9879,6.9224V1.2231H212.191V6.9224h-8.8535V28.769h-6.5351V6.9224Z" style="fill:#a8dfcb"/><path d="M226.859,1.2231l10.41,27.5459h-7.0664l-1.6719-4.9013H217.8922l-1.6328,4.9013h-6.916l10.373-27.5459Zm-.0762,17.3633L223.25,8.1l-3.5713,10.4863Z" style="fill:#a8dfcb"/><path d="M256.9166,9.8472c-.5693-1.8994-2.5078-3.7227-6.041-3.7227-3.9893,0-7.1045,2.9629-7.1045,8.7764s2.8867,9.0049,7.2188,9.0049c3.0019,0,6.1172-1.14,6.1172-4.6358v-.5312h-6.6495V13.4194h13.1455v15.35h-4.9765l-.19-3.04c-1.7871,2.3936-4.4843,3.5342-8.4355,3.5342-8.1309,0-13.1074-5.5479-13.1074-14.3623,0-8.7012,5.6992-14.1338,14.0566-14.1338,6.1172,0,11.0566,3.0771,12.35,9.08Z" style="fill:#a8dfcb"/><path d="M268.319,28.769V1.2231h6.497V28.769Z" style="fill:#a8dfcb"/><path d="M286.0641,9.772V28.769h-6.2695V1.2231h7.9023L298.7535,20.22V1.2231h6.27V28.769H297.12Z" style="fill:#a8dfcb"/><path d="M328.3551,9.8472c-.5693-1.8994-2.5078-3.7227-6.041-3.7227-3.9883,0-7.1045,2.9629-7.1045,8.7764s2.8877,9.0049,7.2187,9.0049c3.001,0,6.1172-1.14,6.1172-4.6358v-.5312h-6.6494V13.4194h13.1465v15.35H330.066l-.19-3.04c-1.7861,2.3936-4.4834,3.5342-8.4346,3.5342-8.1308,0-13.1084-5.5479-13.1084-14.3623C308.3326,6.2,314.0319.7671,322.39.7671c6.1171,0,11.0566,3.0771,12.3486,9.08Z" style="fill:#a8dfcb"/><path d="M120.1241,146.3579c-9.3593,0-14.8042-7.0195-14.8042-16.9639,0-10.125,5.94-16.83,15.1646-16.83,6.7495,0,12.1943,4.0048,13.5893,10.98h-4.455c-.99-4.05-4.14-7.1094-9.3594-7.1094-5.76,0-10.26,4.5-10.26,12.96,0,8.2344,4.32,13.0938,10.3946,13.0938,5.1748,0,8.37-2.9248,9.4047-7.1094h4.4546C132.8136,142.5776,127.1891,146.3579,120.1241,146.3579Z" style="fill:#fff"/><path d="M153.8741,130.8784v-.5849c0-4.41-2.4746-5.8946-5.49-5.8946-3.375,0-5.355,1.8448-5.5347,4.8145h-4.23c.4053-5.22,4.9952-8.1446,9.72-8.1446,6.66,0,9.6748,3.1954,9.6294,9.9893l-.045,5.58a44.7241,44.7241,0,0,0,.63,9.1347h-4.14a26.2408,26.2408,0,0,1-.315-3.33c-1.4848,2.4756-4.0048,3.915-8.28,3.915-4.545,0-8.3248-2.5195-8.3248-6.9746C137.4947,133.6685,143.93,132.0034,153.8741,130.8784ZM142.04,139.2935c0,2.2949,1.7549,3.8242,4.68,3.8242,3.8252,0,7.47-1.7549,7.47-7.47v-1.5292C146.7643,134.8833,142.04,135.9634,142.04,139.2935Z" style="fill:#fff"/><path d="M164.09,145.7729V121.564h4.0947v3.6445a8.0249,8.0249,0,0,1,7.29-4.05c3.69,0,5.8946,1.62,6.9746,4.2754a9.1676,9.1676,0,0,1,8.1446-4.2754c5.625,0,7.83,3.78,7.83,9.3144v15.3h-4.0948V131.689c0-3.7354-.7207-6.9756-5.1748-6.9756-3.51,0-5.8506,2.7451-5.8506,7.92v13.14h-4.0947V131.689c0-3.7354-.72-6.9756-5.1748-6.9756-3.5093,0-5.85,2.7451-5.85,7.92v13.14Z" style="fill:#fff"/><path d="M208.6393,125.3892c1.4844-2.5655,4.05-4.2305,7.9189-4.2305,5.5352,0,10.35,4.6348,10.35,12.6,0,8.01-4.8144,12.6-10.35,12.6-3.8691,0-6.4345-1.665-7.9189-4.23v11.5195h-4.0947V121.564h4.0947Zm13.8144,8.3691c0-5.76-2.7451-9.09-6.93-9.09-3.6455,0-7.0654,2.7-7.0654,9.09s3.42,9.09,7.0654,9.09C219.7086,142.8481,222.4537,139.5181,222.4537,133.7583Z" style="fill:#fff"/><path d="M246.6637,130.8784v-.5849c0-4.41-2.4756-5.8946-5.49-5.8946-3.375,0-5.3545,1.8448-5.5352,4.8145h-4.2295c.4053-5.22,4.9951-8.1446,9.72-8.1446,6.66,0,9.6748,3.1954,9.63,9.9893l-.0449,5.58a44.688,44.688,0,0,0,.63,9.1347h-4.1406a26.2362,26.2362,0,0,1-.3145-3.33c-1.4853,2.4756-4.0049,3.915-8.2793,3.915-4.5449,0-8.3252-2.5195-8.3252-6.9746C230.2838,133.6685,236.7184,132.0034,246.6637,130.8784Zm-11.835,8.4151c0,2.2949,1.7549,3.8242,4.68,3.8242,3.8252,0,7.47-1.7549,7.47-7.47v-1.5292C239.5533,134.8833,234.8287,135.9634,234.8287,139.2935Z" style="fill:#fff"/><path d="M260.9733,118.0991h-4.0948v-4.95h4.0948Zm0,27.6738h-4.0948V121.564h4.0948Z" style="fill:#fff"/><path d="M287.8365,121.564v20.9687c0,4.95-.9,6.9746-2.2949,8.5049-1.7549,2.0254-4.7695,3.1953-8.37,3.1953-5.4893,0-9.1787-2.52-9.9443-7.4248h4.3652c.54,2.16,1.8447,3.8242,5.625,3.8242a6.46,6.46,0,0,0,4.9492-1.8c.9-.9443,1.5752-2.0693,1.5752-5.3545v-2.2949c-1.4853,2.5645-3.8252,4.1846-7.6943,4.1846-5.3555,0-10.26-4.3194-10.26-12.1045,0-7.7393,4.9043-12.1045,10.26-12.1045a8.1693,8.1693,0,0,1,7.6943,4.2305V121.564Zm-17.5947,11.6992c0,5.5351,2.835,8.64,6.84,8.64,3.6455,0,6.84-2.4746,6.84-8.64,0-6.1192-3.1943-8.5947-6.84-8.5947C273.0768,124.6685,270.2418,127.7739,270.2418,133.2632Z" style="fill:#fff"/><path d="M306.2408,121.1587c5.85,0,7.9649,3.78,7.9649,9.3144v15.3H310.111V131.689c0-3.7354-.63-6.9756-5.31-6.9756-3.96,0-6.39,2.7451-6.39,7.92v13.14H294.317V121.564h4.0947v3.6445C299.8063,122.9136,302.1461,121.1587,306.2408,121.1587Z" style="fill:#fff"/><path d="M328.4713,124.6235c-2.3848,0-5.085.8555-5.085,3.0606,0,1.9346,1.35,2.8349,3.69,3.2842l3.42.6748c4.41.8554,8.28,2.52,8.28,7.2,0,4.7695-4.32,7.5146-9.8545,7.5146-6.3447,0-9.9453-4.1846-10.3945-8.415h4.3193c.63,3.1054,2.5645,4.95,6.165,4.95,3.1045,0,5.6241-1.35,5.6241-3.6,0-2.43-2.2949-3.4649-4.9043-4.0049l-3.6-.72c-3.2852-.6757-6.8848-2.205-6.8848-6.705,0-4.2754,4.3193-6.75,9.6748-6.75,5.22,0,8.7744,2.9248,9.5391,7.5146h-4.2744C333.5563,125.7485,331.3063,124.6235,328.4713,124.6235Z" style="fill:#fff"/></svg>