<svg id="Layer_1" data-name="Layer 1" xmlns="http://www.w3.org/2000/svg" viewBox="0 0 341 155"><polygon points="141.987 47.294 159.934 65.241 168.253 65.241 168.253 56.872 150.331 38.95 141.987 47.294"/><polygon points="171.779 68.767 171.779 77.09 189.741 95.085 198.085 86.737 180.148 68.767 171.779 68.767"/><polygon points="141.987 86.738 150.331 95.086 168.253 77.136 168.253 68.767 159.93 68.767 141.987 86.738"/><polygon points="198.085 47.3 189.741 38.956 171.779 56.918 171.779 65.241 180.144 65.241 198.085 47.3"/><polygon points="257.027 41.612 257.027 92.381 269.094 92.381 269.094 67.829 269.094 52.202 269.094 41.612 257.027 41.612"/><path d="M269.0944,52.2019H287.098v-10.59h-6.9613C273.8319,41.6118,269.0944,45.8972,269.0944,52.2019Z"/><path d="M75.0267,25.2053H63.0627v55.76A11.4157,11.4157,0,0,0,74.4784,92.3806H84.995V82.4129H75.0267Z"/><path d="M32.2589,40.3687c-12.1063,0-18.7649,8.6755-18.7649,14.4145V41.6089H.75V110.59H13.494V79.9314c0,7.1929,7.6868,13.76,17.7115,13.76,14.12,0,23.96-11.9368,23.96-26.6614S46.3789,40.3687,32.2589,40.3687ZM27.5348,83.1455c-11.3841,0-15.19-6.8136-15.19-16.1152s3.8059-16.1155,15.19-16.1155,15.19,6.8137,15.19,16.1155S38.9189,83.1455,27.5348,83.1455Z"/><path d="M113.6151,40.3688c-15.5926,0-25.8418,11.9215-25.8418,26.6274s10.3184,26.6273,26.4643,26.6273c10.1971,0,17.2046-3.824,21.68-8.1651L128.3286,77.87a19.2211,19.2211,0,0,1-13.676,5.4214A14.3069,14.3069,0,0,1,100.2594,71.762h38.3573a29.9145,29.9145,0,0,0,.4046-5.16C139.0213,51.8961,129.2074,40.3688,113.6151,40.3688Zm-13.666,22.65c.7643-7.122,5.8417-12.7531,13.666-12.7531s12.7859,5.5848,13.1056,12.7531Z"/><path d="M340.25,66.602c0-14.7059-9.8138-26.2332-25.4061-26.2332S289.0019,52.29,289.0019,66.9962,299.32,93.6235,315.4662,93.6235c10.1971,0,17.2046-3.824,21.68-8.1651L329.5573,77.87a19.2214,19.2214,0,0,1-13.6761,5.4214A14.3069,14.3069,0,0,1,301.488,71.762h38.3574A29.915,29.915,0,0,0,340.25,66.602Zm-39.0722-3.5832c.7643-7.122,5.8417-12.7531,13.6661-12.7531s12.7858,5.5848,13.1055,12.7531Z"/><path d="M234.7635,81.9979H216.7572V41.6118H204.6888v33.67c0,11.666,9.4572,18.4261,21.1233,18.4261h0c11.666,0,21.1232-6.76,21.1232-18.4261V41.6118H234.7635Z"/><path d="M120.1241,146.3582c-9.3594,0-14.8042-7.02-14.8042-16.9639,0-10.125,5.94-16.83,15.1646-16.83,6.7495,0,12.1943,4.0049,13.5893,10.98h-4.4551c-.99-4.05-4.14-7.1094-9.3593-7.1094-5.76,0-10.26,4.5-10.26,12.96,0,8.2344,4.32,13.0937,10.3945,13.0937,5.1748,0,8.37-2.9248,9.4048-7.1093h4.4546C132.8136,142.5779,127.1891,146.3582,120.1241,146.3582Z"/><path d="M153.8741,130.8787v-.585c0-4.41-2.4746-5.8945-5.49-5.8945-3.375,0-5.355,1.8447-5.5347,4.8144h-4.23c.4053-5.22,4.9951-8.1445,9.72-8.1445,6.66,0,9.6748,3.1953,9.6294,9.9892l-.0449,5.58a44.7252,44.7252,0,0,0,.63,9.1348h-4.14a26.2474,26.2474,0,0,1-.3149-3.33c-1.4849,2.4756-4.0049,3.9151-8.28,3.9151-4.5449,0-8.3247-2.52-8.3247-6.9747C137.4947,133.6687,143.93,132.0037,153.8741,130.8787Zm-11.8345,8.415c0,2.2949,1.7549,3.8242,4.68,3.8242,3.8252,0,7.47-1.7549,7.47-7.47v-1.5293C146.7642,134.8835,142.04,135.9636,142.04,139.2937Z"/><path d="M164.0894,145.7732v-24.209h4.0948v3.6445a8.0237,8.0237,0,0,1,7.29-4.05c3.69,0,5.8945,1.62,6.9746,4.2754a9.1675,9.1675,0,0,1,8.1445-4.2754c5.625,0,7.83,3.78,7.83,9.3145v15.3h-4.0947v-14.084c0-3.7353-.7207-6.9756-5.1748-6.9756-3.51,0-5.8506,2.7451-5.8506,7.92v13.14h-4.0947v-14.084c0-3.7353-.72-6.9756-5.1748-6.9756-3.5093,0-5.85,2.7451-5.85,7.92v13.14Z"/><path d="M208.6392,125.3894c1.4844-2.5654,4.05-4.23,7.919-4.23,5.5351,0,10.35,4.6348,10.35,12.6,0,8.01-4.8145,12.6-10.35,12.6-3.8691,0-6.4346-1.6651-7.919-4.23v11.5195h-4.0947v-32.084h4.0947Zm13.8145,8.3691c0-5.76-2.7451-9.09-6.93-9.09-3.6455,0-7.0654,2.7-7.0654,9.09s3.42,9.09,7.0654,9.09C219.7086,142.8484,222.4537,139.5183,222.4537,133.7585Z"/><path d="M246.6627,130.8787v-.585c0-4.41-2.4756-5.8945-5.49-5.8945-3.375,0-5.3545,1.8447-5.5352,4.8144h-4.23c.4053-5.22,4.9951-8.1445,9.72-8.1445,6.66,0,9.6748,3.1953,9.63,9.9892l-.0449,5.58a44.6891,44.6891,0,0,0,.63,9.1348h-4.14a26.0491,26.0491,0,0,1-.3154-3.33c-1.4854,2.4756-4.0049,3.9151-8.2793,3.9151-4.5449,0-8.3252-2.52-8.3252-6.9747C230.2828,133.6687,236.7174,132.0037,246.6627,130.8787Zm-11.835,8.415c0,2.2949,1.7549,3.8242,4.68,3.8242,3.8252,0,7.47-1.7549,7.47-7.47v-1.5293C239.5523,134.8835,234.8277,135.9636,234.8277,139.2937Z"/><path d="M260.9732,118.0994h-4.0947v-4.95h4.0947Zm0,27.6738h-4.0947v-24.209h4.0947Z"/><path d="M287.8365,121.5642V142.533c0,4.95-.9,6.9746-2.2949,8.5048-1.7549,2.0254-4.7695,3.1954-8.37,3.1954-5.4893,0-9.1787-2.5206-9.9444-7.4249h4.3653c.54,2.16,1.8447,3.8243,5.625,3.8243a6.46,6.46,0,0,0,4.9492-1.8c.9-.9444,1.5752-2.0694,1.5752-5.3545v-2.295c-1.4854,2.5645-3.8252,4.1846-7.6943,4.1846-5.3555,0-10.26-4.3193-10.26-12.1045,0-7.7392,4.9043-12.1045,10.26-12.1045a8.17,8.17,0,0,1,7.6943,4.23v-3.8252Zm-17.5947,11.6992c0,5.5352,2.8349,8.64,6.84,8.64,3.6455,0,6.84-2.4746,6.84-8.64,0-6.1191-3.1944-8.5947-6.84-8.5947C273.0767,124.6687,270.2418,127.7742,270.2418,133.2634Z"/><path d="M306.2408,121.1589c5.85,0,7.9649,3.78,7.9649,9.3145v15.3h-4.0948v-14.084c0-3.7353-.63-6.9756-5.31-6.9756-3.96,0-6.39,2.7451-6.39,7.92v13.14H294.317v-24.209h4.0947v3.6445C299.8062,122.9138,302.1461,121.1589,306.2408,121.1589Z"/><path d="M328.4713,124.6238c-2.3848,0-5.085.8554-5.085,3.06,0,1.9346,1.35,2.835,3.69,3.2842l3.42.6748c4.41.8555,8.28,2.52,8.28,7.2,0,4.7695-4.32,7.5147-9.8545,7.5147-6.3448,0-9.9453-4.1846-10.3946-8.4151h4.3194c.63,3.1055,2.5644,4.95,6.165,4.95,3.1045,0,5.624-1.35,5.624-3.6,0-2.43-2.2949-3.4648-4.9043-4.0049l-3.6-.72c-3.2851-.6758-6.8847-2.2051-6.8847-6.7051,0-4.2754,4.3193-6.75,9.6748-6.75,5.22,0,8.7744,2.9248,9.539,7.5147h-4.2744C333.5562,125.7488,331.3062,124.6238,328.4713,124.6238Z"/><path d="M170.8873,8.6316c0,1.3682,1.291,2.3559,3.1914,2.7739l3.7607.76c4.4454.9116,10.0694,2.28,10.0694,8.0547s-5.8135,9.0429-11.5508,9.0429c-7.0669,0-11.7022-3.5337-12.69-9.4609h6.4589c.7222,2.8877,3.0015,4.2173,6.3833,4.2173,2.2032,0,4.711-.7217,4.711-3.0015,0-1.7856-2.128-2.66-5.1289-3.3052l-3.3438-.684c-4.4829-.95-8.5483-3.0777-8.5483-8.0166,0-5.6236,6.041-8.2452,11.436-8.2452s10.5244,2.356,11.4737,8.4351h-6.4209c-.6456-2.0518-2.6592-3.23-5.4327-3.23C172.7486,5.9719,170.8873,6.9221,170.8873,8.6316Z" style="fill:#37c0d5"/><path d="M187.9879,6.9221V1.2229H212.19V6.9221h-8.8525V28.7688h-6.5352V6.9221Z" style="fill:#37c0d5"/><path d="M226.859,1.2229l10.41,27.5459h-7.0664l-1.6719-4.9014H217.8922l-1.6338,4.9014h-6.9151L219.7164,1.2229Zm-.0762,17.3633L223.25,8.1l-3.5713,10.4863Z" style="fill:#37c0d5"/><path d="M256.9166,9.8474c-.57-1.8994-2.5078-3.7231-6.041-3.7231-3.9893,0-7.1055,2.9633-7.1055,8.7763s2.8877,9.0049,7.2188,9.0049c3.0019,0,6.1171-1.14,6.1171-4.6352v-.5318h-6.6484V13.4192h13.1455v15.35h-4.9765l-.19-3.04c-1.7861,2.3936-4.4834,3.5337-8.4345,3.5337-8.1309,0-13.1084-5.5473-13.1084-14.3623,0-8.7006,5.6992-14.1338,14.0576-14.1338,6.1172,0,11.0566,3.0777,12.3486,9.0806Z" style="fill:#37c0d5"/><path d="M268.3189,28.7688V1.2229h6.4971V28.7688Z" style="fill:#37c0d5"/><path d="M286.0631,9.7717V28.7688h-6.2686V1.2229h7.9024L298.7535,20.22V1.2229h6.2686V28.7688H297.12Z" style="fill:#37c0d5"/><path d="M328.3551,9.8474c-.5694-1.8994-2.5078-3.7231-6.041-3.7231-3.9893,0-7.1045,2.9633-7.1045,8.7763s2.8877,9.0049,7.2187,9.0049c3.001,0,6.1172-1.14,6.1172-4.6352v-.5318h-6.6494V13.4192h13.1465v15.35H330.065l-.1894-3.04c-1.7862,2.3936-4.4834,3.5337-8.4356,3.5337-8.1308,0-13.1074-5.5473-13.1074-14.3623C308.3326,6.2,314.0318.7668,322.39.7668c6.1172,0,11.0567,3.0777,12.3487,9.0806Z" style="fill:#37c0d5"/></svg>